<svg xmlns="http://www.w3.org/2000/svg" viewBox="0 0 501.699 157.448"><g data-name="Group 21"><path fill="none" stroke="#273481" stroke-miterlimit="10" d="M0 .5h34.5l463.2 152.7" data-name="Path 47"/><g data-name="Group 20"><g data-name="Group 19"><path fill="#fff" d="M496.3 156.8a3.732 3.732 0 1 0-2.4-4.7 3.7 3.7 0 0 0 2.4 4.7z" data-name="Path 48"/><path fill="#273481" d="M496.1 157.2a4.269 4.269 0 1 1 5.4-2.7 4.137 4.137 0 0 1-5.4 2.7c-2.2-.7 2.3.8 0 0zm2.4-7.1a3.257 3.257 0 1 0 2.1 4.1 3.293 3.293 0 0 0-2.1-4.1c-1.7-.6 1.7.5 0 0z" data-name="Path 49"/></g></g></g></svg>