<svg xmlns="http://www.w3.org/2000/svg" viewBox="0 0 130.774 164.949"><g data-name="Group 18"><g data-name="Group 17"><path fill="none" stroke="#273481" stroke-miterlimit="10" d="M0 .5h44.5l82.2 160.4" data-name="Path 44"/><g data-name="Group 16"><g data-name="Group 15"><path fill="#fff" d="M123.2 162.4a3.762 3.762 0 0 0 5.1 1.6 3.706 3.706 0 0 0 1.6-5.1 3.762 3.762 0 0 0-5.1-1.6 3.91 3.91 0 0 0-1.6 5.1z" data-name="Path 45"/><path fill="#273481" d="M122.8 162.7a4.227 4.227 0 1 1 5.7 1.8 4.239 4.239 0 0 1-5.7-1.8c-1.1-2.1 1 2.1 0 0zm6.7-3.5a3.265 3.265 0 1 0-1.4 4.4 3.284 3.284 0 0 0 1.4-4.4z" data-name="Path 46"/></g></g></g></g></svg>