<svg xmlns="http://www.w3.org/2000/svg" viewBox="0 0 130.774 164.949">
  <defs>
    <style>
      .cls-1 {
        fill: none;
        stroke: #273481;
        stroke-miterlimit: 10;
      }

      .cls-2 {
        fill: #fff;
      }

      .cls-3 {
        fill: #273481;
      }
    </style>
  </defs>
  <g id="Group_18" data-name="Group 18" transform="translate(-230 -342)">
    <g id="Group_17" data-name="Group 17" transform="translate(3 59)">
      <path id="Path_44" data-name="Path 44" class="cls-1" d="M227,283.5h44.5l82.2,160.4"/>
      <g id="Group_16" data-name="Group 16">
        <g id="Group_15" data-name="Group 15">
          <path id="Path_45" data-name="Path 45" class="cls-2" d="M350.2,445.4a3.762,3.762,0,0,0,5.1,1.6,3.706,3.706,0,0,0,1.6-5.1,3.762,3.762,0,0,0-5.1-1.6A3.91,3.91,0,0,0,350.2,445.4Z"/>
          <path id="Path_46" data-name="Path 46" class="cls-3" d="M349.8,445.7a4.227,4.227,0,1,1,5.7,1.8,4.239,4.239,0,0,1-5.7-1.8C348.7,443.6,350.8,447.8,349.8,445.7Zm6.7-3.5a3.265,3.265,0,1,0-1.4,4.4,3.284,3.284,0,0,0,1.4-4.4Z"/>
        </g>
      </g>
    </g>
  </g>
</svg>
