<svg xmlns="http://www.w3.org/2000/svg" viewBox="0 0 176.142 180.372"><g data-name="Group 13"><path data-name="Path 41" d="M0 .5h39.5l132.6 175.8" fill="none" stroke="#273481" stroke-miterlimit="10"/><g data-name="Group 12"><g data-name="Group 11"><path data-name="Path 42" d="M168.9 178.4a3.78 3.78 0 1 0 .7-5.3 3.9 3.9 0 0 0-.7 5.3z" fill="#fff"/><path data-name="Path 43" d="M168.5 178.7a4.28 4.28 0 1 1 6 .8 4.309 4.309 0 0 1-6-.8c-1.4-1.9 1.5 1.9 0 0zm6-4.5a3.28 3.28 0 1 0-.6 4.6 3.309 3.309 0 0 0 .6-4.6c-1-1.5 1.1 1.4 0 0z" fill="#273481"/></g></g></g></svg>
